<svg width="13" height="13" viewBox="0 0 13 13" fill="none" xmlns="http://www.w3.org/2000/svg">
<path fill-rule="evenodd" clip-rule="evenodd" d="M8.67938 0.630867C9.3485 -0.0382511 10.4382 -0.0382511 11.1264 0.630867L12.3691 1.87351C13.0382 2.54263 13.0382 3.63234 12.3691 4.32057L4.32055 12.3691C3.99555 12.6941 3.55585 12.8662 3.09702 12.8662H0.707318C0.382318 12.8662 0.133789 12.6176 0.133789 12.2926V9.90293C0.133789 9.4441 0.324966 9.0044 0.630848 8.6794L8.67938 0.630867ZM10.3044 1.45293C10.075 1.22351 9.71173 1.22351 9.48232 1.45293L8.39261 2.54263L10.4573 4.60734L11.547 3.51763C11.7764 3.28822 11.7764 2.92498 11.547 2.69557L10.3044 1.45293ZM7.58967 3.32645L9.65438 5.39116L3.47938 11.5279C3.38379 11.6426 3.23085 11.7 3.07791 11.7H1.26173V9.88381C1.26173 9.73087 1.31908 9.59704 1.43379 9.48234L7.58967 3.32645Z" fill="black"/>
</svg>
