<svg width="20" height="20" viewBox="0 0 20 20" fill="none" xmlns="http://www.w3.org/2000/svg">
<path d="M10 0C4.46745 0 0 4.49704 0 10C0 15.5325 4.49704 20 10 20C15.5325 20 20 15.503 20 10C20 4.46745 15.5325 0 10 0ZM10.5621 14.2899C10.4142 14.4675 10.2071 14.5266 10 14.5266C9.76331 14.5266 9.55621 14.4379 9.40828 14.2899C9.28994 14.142 9.20118 13.9645 9.20118 13.7278C9.20118 13.5207 9.28994 13.3136 9.43787 13.1657C9.73373 12.8698 10.2663 12.8698 10.5621 13.1657C10.7101 13.3136 10.7988 13.5207 10.7988 13.7278C10.7988 13.9645 10.7101 14.142 10.5621 14.2899ZM10.7988 10.4734C10.7988 10.9172 10.4438 11.2722 10 11.2722C9.55621 11.2722 9.20118 10.9172 9.20118 10.4734V6.27219C9.20118 5.8284 9.55621 5.47337 10 5.47337C10.4438 5.47337 10.7988 5.8284 10.7988 6.27219V10.4734Z" fill="#EB3F29"/>
</svg>
