<svg width="26" height="25" viewBox="0 0 26 25" fill="none" xmlns="http://www.w3.org/2000/svg">
<path fill-rule="evenodd" clip-rule="evenodd" d="M0 21V10H26V21C26 23.2091 24.2091 25 22 25H4C1.79086 25 0 23.2091 0 21ZM12.9132 17.9421C12.0921 17.9421 11.4421 17.2921 11.4421 16.4711C11.4421 15.65 12.0921 15 12.9132 15C13.7342 15 14.3842 15.65 14.3842 16.4711C14.3842 17.2921 13.7342 17.9421 12.9132 17.9421ZM16.8842 16.4711C16.8842 17.2921 17.5342 17.9421 18.3553 17.9421C19.1763 17.9421 19.8263 17.2921 19.8263 16.4711C19.8263 15.65 19.1763 15 18.3553 15C17.5342 15 16.8842 15.65 16.8842 16.4711ZM6 16.4711C6 17.2921 6.65 17.9421 7.47105 17.9421C8.25789 17.9421 8.9079 17.2921 8.94211 16.4711C8.94211 15.65 8.29211 15 7.47105 15C6.65 15 6 15.65 6 16.4711Z" fill="white"/>
<path d="M0 6C0 3.79086 1.79086 2 4 2H22C24.2091 2 26 3.79086 26 6V10H0V6Z" fill="white" fill-opacity="0.6"/>
<rect x="17" width="2.3" height="5" rx="1.15" fill="white"/>
<rect x="7" width="2.3" height="5" rx="1.15" fill="white"/>
</svg>
