<svg width="27" height="26" viewBox="0 0 27 26" fill="none" xmlns="http://www.w3.org/2000/svg">
<g filter="url(#filter0_i)">
<path d="M13.5 3C7.71053 3 3 7.71053 3 13.5C3 19.2895 7.71053 24 13.5 24C19.2895 24 24 19.2895 24 13.5C24 7.71053 19.3158 3 13.5 3Z" fill="url(#paint0_linear)"/>
</g>
<path d="M13.5 2C7.15824 2 2 7.15824 2 13.5C2 19.8418 7.15824 25 13.5 25C19.8418 25 25 19.8418 25 13.5C25 7.15987 19.8697 2 13.5 2Z" stroke="#FDDB7B" stroke-width="2"/>
<g filter="url(#filter1_d)">
<path d="M18.9183 12.1007L16.232 14.3399L17.0238 17.6583C17.0803 17.9011 16.8258 18.0899 16.5996 17.955L13.5174 16.2284L10.407 17.955C10.1808 18.0629 9.92626 17.9011 9.98282 17.6583L10.7746 14.3399L8.08827 12.1007C7.91861 11.9388 8.00344 11.6421 8.25793 11.6151L11.8208 11.2914L13.2347 8.16187C13.3478 7.94604 13.6871 7.94604 13.7719 8.16187L15.1858 11.2914L18.7486 11.6151C18.9749 11.6421 19.088 11.9388 18.9183 12.1007Z" fill="#FFE356"/>
</g>
<defs>
<filter id="filter0_i" x="1" y="1" width="25" height="26" filterUnits="userSpaceOnUse" color-interpolation-filters="sRGB">
<feFlood flood-opacity="0" result="BackgroundImageFix"/>
<feBlend mode="normal" in="SourceGraphic" in2="BackgroundImageFix" result="shape"/>
<feColorMatrix in="SourceAlpha" type="matrix" values="0 0 0 0 0 0 0 0 0 0 0 0 0 0 0 0 0 0 127 0" result="hardAlpha"/>
<feOffset dy="1"/>
<feGaussianBlur stdDeviation="3"/>
<feComposite in2="hardAlpha" operator="arithmetic" k2="-1" k3="1"/>
<feColorMatrix type="matrix" values="0 0 0 0 0 0 0 0 0 0 0 0 0 0 0 0 0 0 0.04 0"/>
<feBlend mode="normal" in2="shape" result="effect1_innerShadow"/>
</filter>
<filter id="filter1_d" x="0" y="0" width="27" height="26" filterUnits="userSpaceOnUse" color-interpolation-filters="sRGB">
<feFlood flood-opacity="0" result="BackgroundImageFix"/>
<feColorMatrix in="SourceAlpha" type="matrix" values="0 0 0 0 0 0 0 0 0 0 0 0 0 0 0 0 0 0 127 0"/>
<feOffset/>
<feGaussianBlur stdDeviation="4"/>
<feColorMatrix type="matrix" values="0 0 0 0 0 0 0 0 0 0 0 0 0 0 0 0 0 0 0.0545782 0"/>
<feBlend mode="normal" in2="BackgroundImageFix" result="effect1_dropShadow"/>
<feBlend mode="normal" in="SourceGraphic" in2="effect1_dropShadow" result="shape"/>
</filter>
<linearGradient id="paint0_linear" x1="3" y1="3" x2="3" y2="24" gradientUnits="userSpaceOnUse">
<stop stop-color="#FCEABB"/>
<stop offset="1" stop-color="#F8B500"/>
</linearGradient>
</defs>
</svg>
