<svg width="25" height="24" viewBox="0 0 25 24" fill="none" xmlns="http://www.w3.org/2000/svg">
<path d="M3.10919 8.93274L3.11006 8.93434L3.11345 8.94057L3.12635 8.96427L3.17264 9.04943C3.21109 9.12025 3.26272 9.21549 3.31539 9.31317C3.42026 9.50762 3.53062 9.71417 3.548 9.75445L3.52504 9.76435L3.548 9.75445C3.73992 10.1998 4.03756 10.502 4.43798 10.6623C4.83916 10.8229 5.34621 10.8422 5.95813 10.7159C7.21716 10.456 8.65177 9.61592 9.81148 8.52923C10.971 7.44269 11.8513 6.11384 12.0089 4.87867C12.0098 4.47435 12.3295 4.25271 12.6455 4.24253C12.8039 4.23742 12.9635 4.28511 13.0838 4.39083C13.2042 4.4967 13.2832 4.65896 13.2836 4.87868C13.4413 6.11384 14.3215 7.44269 15.481 8.52923C16.6407 9.61592 18.0753 10.456 19.3342 10.7159C19.946 10.8419 20.4529 10.8227 20.8541 10.6621C21.2546 10.5018 21.5523 10.1998 21.7443 9.75445C21.7542 9.73135 21.8936 9.44751 22.0299 9.17086L22.2167 8.79175L22.2779 8.66779L22.295 8.63315L22.2995 8.62403L22.3007 8.62169L22.3009 8.62116L22.3009 8.6211L22.301 8.62095L22.301 8.62092L22.3235 8.63197L3.10919 8.93274ZM3.10919 8.93274C2.95693 8.61784 2.57848 8.48493 2.26348 8.63696C1.94809 8.78857 1.81525 9.16757 1.96711 9.48296C1.96711 9.48296 1.96711 9.48297 1.96711 9.48297L6.38951 18.6744H4.96791C4.6178 18.6744 4.3341 18.9581 4.3341 19.3082C4.3341 19.6583 4.6178 19.942 4.96791 19.942H20.153C20.5028 19.942 20.7868 19.6583 20.7868 19.3082C20.7868 18.9581 20.5028 18.6744 20.153 18.6744H18.8799L23.4438 9.16978L23.4213 9.15895L3.10919 8.93274ZM5.22139 12.0634H5.22141H5.22847C5.54083 12.0634 5.8703 12.0283 6.21443 11.9574L6.20938 11.9329L6.21443 11.9574C7.7552 11.6394 9.51126 10.6172 10.9133 9.22418C11.3026 8.83739 11.6475 8.44122 11.9459 8.04029L11.9258 8.02536L11.9459 8.04028C12.2982 7.56668 12.9943 7.56668 13.3467 8.04028C13.6448 8.44122 13.99 8.83739 14.3792 9.22417C15.7813 10.6172 17.5373 11.6394 19.0779 11.9574L19.0829 11.9329L19.0779 11.9574C19.4222 12.0283 19.7515 12.0634 20.0636 12.0634H20.0704C20.3381 12.0631 20.514 12.3425 20.3983 12.5837L17.7836 18.0286L17.8061 18.0395L17.7836 18.0286C17.5942 18.4235 17.1953 18.6744 16.7573 18.6744H8.51212C8.07462 18.6744 7.67572 18.4237 7.48604 18.0296L4.87793 12.6093C4.75635 12.3563 4.94079 12.0631 5.22139 12.0634ZM23.8852 7.47833C24.3137 7.47833 24.6609 7.13107 24.6609 6.70255C24.6609 6.27402 24.3137 5.92677 23.8852 5.92677C23.4567 5.92677 23.1091 6.27401 23.1091 6.70255C23.1091 7.13108 23.4567 7.47833 23.8852 7.47833ZM12.6223 0.975C12.1938 0.975 11.8463 1.3225 11.8463 1.75102C11.8463 2.17956 12.1938 2.5268 12.6223 2.5268C13.0508 2.5268 13.3981 2.17955 13.3981 1.75102C13.3981 1.32251 13.0508 0.975 12.6223 0.975ZM1.54375 5.78456C1.11546 5.78456 0.767969 6.13206 0.767969 6.56058C0.767969 6.98911 1.11547 7.33635 1.54375 7.33635C1.97226 7.33635 2.31977 6.98911 2.31977 6.56058C2.31977 6.13205 1.97227 5.78456 1.54375 5.78456ZM4.96791 23.025H20.153C20.5028 23.025 20.7868 22.7413 20.7868 22.3912C20.7868 22.0413 20.5028 21.7574 20.153 21.7574H4.96791C4.61779 21.7574 4.3341 22.0413 4.3341 22.3912C4.3341 22.7413 4.6178 23.025 4.96791 23.025Z" fill="#111111" stroke="#111111" stroke-width="0.05"/>
</svg>
