<svg width="18" height="18" viewBox="0 0 18 18" fill="none" xmlns="http://www.w3.org/2000/svg">
<path fill-rule="evenodd" clip-rule="evenodd" d="M16.9383 1.89892H1.06173C0.476543 1.89892 0 1.47498 0 0.94946C0 0.426153 0.474074 0 1.06173 0H16.9383C17.5235 0 18 0.423945 18 0.94946C18 1.47498 17.5235 1.89892 16.9383 1.89892ZM16.9383 18H1.06173C0.476543 18 0 17.5761 0 17.0505C0 16.5272 0.474074 16.1011 1.06173 16.1011H16.9383C17.5235 16.1011 18 16.525 18 17.0505C18 17.5738 17.5235 18 16.9383 18ZM1.06173 9.72865H16.9383C17.5235 9.72865 18 9.3025 18 8.77919C18 8.25368 17.5235 7.82973 16.9383 7.82973H1.06173C0.474074 7.82973 0 8.25589 0 8.77919C0 9.30471 0.476543 9.72865 1.06173 9.72865Z" fill="white"/>
</svg>
