<svg width="22" height="22" viewBox="0 0 22 22" fill="none" xmlns="http://www.w3.org/2000/svg">
<path d="M11 22C4.93429 22 0 17.0657 0 11C0 4.93429 4.93429 0 11 0C17.0657 0 22 4.93429 22 11C22 17.0657 17.0657 22 11 22ZM11 1.88571C5.94 1.88571 1.85429 5.97143 1.85429 11C1.85429 16.0286 5.94 20.1457 11 20.1457C16.06 20.1457 20.1457 16.06 20.1457 11C20.1143 5.97143 16.0286 1.88571 11 1.88571Z" fill="black"/>
<path d="M10.7174 14.0485C10.2145 14.0485 9.7745 13.6399 9.7745 13.1057C9.7745 11.6599 10.7174 10.4028 12.0688 9.99423C12.6659 9.80566 13.0745 9.27138 13.0431 8.6428C13.0431 7.51138 12.1002 6.56852 10.9688 6.56852C9.83736 6.56852 8.8945 7.51138 8.8945 8.6428C8.8945 9.14566 8.48593 9.58566 7.95165 9.58566C7.44879 9.58566 7.00879 9.17709 7.00879 8.6428C7.07165 6.47423 8.83165 4.71423 11.0002 4.71423C13.1688 4.71423 14.9288 6.47423 14.9288 8.6428C14.9288 10.0885 13.9859 11.3457 12.6345 11.7542C12.0374 11.9428 11.6288 12.4771 11.6602 13.1057C11.6602 13.6085 11.2202 14.0485 10.7174 14.0485Z" fill="black"/>
<path d="M10.7174 17.1286C11.3422 17.1286 11.8488 16.622 11.8488 15.9972C11.8488 15.3723 11.3422 14.8657 10.7174 14.8657C10.0925 14.8657 9.58594 15.3723 9.58594 15.9972C9.58594 16.622 10.0925 17.1286 10.7174 17.1286Z" fill="black"/>
</svg>
