<svg width="64" height="64" viewBox="0 0 64 64" fill="none" xmlns="http://www.w3.org/2000/svg">
<g filter="url(#filter0_d)">
<rect x="4" y="4" width="56" height="56" rx="22" fill="url(#paint0_linear)"/>
</g>
<rect x="19" y="23" width="26" height="7" rx="1" fill="white" fill-opacity="0.6"/>
<path fill-rule="evenodd" clip-rule="evenodd" d="M28.464 19.4142C28.8545 19.0237 29.4877 19.0237 29.8782 19.4142L32.5351 22.0711L35.1919 19.4142C35.5825 19.0237 36.2156 19.0237 36.6062 19.4142L38.7275 21.5356C39.118 21.9261 39.118 22.5592 38.7275 22.9498L38.6772 23H26.393L26.3427 22.9498C25.9522 22.5592 25.9522 21.9261 26.3427 21.5356L28.464 19.4142Z" fill="white"/>
<path fill-rule="evenodd" clip-rule="evenodd" d="M43 30H21V40C21 42.2091 22.7909 44 25 44H39C41.2091 44 43 42.2091 43 40V30ZM33.5304 33C34.8921 33 36 34.1244 36 35.5064C36 35.5338 35.9987 35.5609 35.9971 35.5877C35.999 35.6009 36 35.6141 36 35.6278C36 37.8861 32.87 40.1111 32 40.1111C31.13 40.1111 28 37.8861 28 35.6278C28 35.614 28.001 35.6004 28.0029 35.5872C28.0013 35.5605 28 35.5335 28 35.5064C28 34.1244 29.1079 33 30.4696 33C31.081 33 31.6095 33.4327 32 33.8063C32.3905 33.4327 32.919 33 33.5304 33Z" fill="white"/>
<defs>
<filter id="filter0_d" x="0" y="0" width="64" height="64" filterUnits="userSpaceOnUse" color-interpolation-filters="sRGB">
<feFlood flood-opacity="0" result="BackgroundImageFix"/>
<feColorMatrix in="SourceAlpha" type="matrix" values="0 0 0 0 0 0 0 0 0 0 0 0 0 0 0 0 0 0 127 0"/>
<feOffset/>
<feGaussianBlur stdDeviation="2"/>
<feColorMatrix type="matrix" values="0 0 0 0 0 0 0 0 0 0 0 0 0 0 0 0 0 0 0.04 0"/>
<feBlend mode="normal" in2="BackgroundImageFix" result="effect1_dropShadow"/>
<feBlend mode="normal" in="SourceGraphic" in2="effect1_dropShadow" result="shape"/>
</filter>
<linearGradient id="paint0_linear" x1="4" y1="4" x2="4" y2="60" gradientUnits="userSpaceOnUse">
<stop stop-color="#69CFF0"/>
<stop offset="1" stop-color="#5192EA"/>
</linearGradient>
</defs>
</svg>
