<svg width="22" height="22" viewBox="0 0 22 22" fill="none" xmlns="http://www.w3.org/2000/svg">
<path d="M21.9982 11C21.9982 4.92433 17.0738 0 10.9991 0C4.92433 0 0 4.92433 0 11C0 16.489 4.02233 21.0393 9.28033 21.8643V14.179H6.48817V10.9991H9.28033V8.57633C9.28033 5.819 10.923 4.29642 13.4347 4.29642C14.6383 4.29642 15.8968 4.51092 15.8968 4.51092V7.21783H14.5108C13.145 7.21783 12.7188 8.06575 12.7188 8.93567V11H15.7694L15.2817 14.1799H12.7188V21.8652C17.9767 21.0402 21.9991 16.4899 21.9991 11H21.9982Z" fill="#5294EA"/>
</svg>
