<svg width="18" height="17" viewBox="0 0 18 17" fill="none" xmlns="http://www.w3.org/2000/svg">
<path d="M1.88965 10.2416H8.27501V16.8135H3.09209C2.42867 16.8135 1.88965 16.2745 1.88965 15.6111V10.2416Z" fill="#111111"/>
<path d="M15.7174 10.2416V15.5904C15.7174 16.2538 15.1784 16.7928 14.515 16.7928H9.33203V10.2416H15.7174Z" fill="#111111"/>
<path d="M0.500977 6.28177V8.0025C0.500977 8.66591 1.04 9.20494 1.70342 9.20494H1.86927H8.25464V8.16835V5.05859H1.72415C1.06073 5.05859 0.500977 5.61835 0.500977 6.28177Z" fill="#111111"/>
<path d="M15.8854 5.05859H9.31348V8.16835V9.20494H15.6988H15.8647C16.5281 9.20494 17.0671 8.66591 17.0671 8.0025V6.28177C17.0879 5.61835 16.5488 5.05859 15.8854 5.05859Z" fill="#111111"/>
<path fill-rule="evenodd" clip-rule="evenodd" d="M8.3991 5.59758C8.50276 5.72197 8.64788 5.78417 8.79301 5.78417C13.5613 5.78417 15.7174 3.60734 15.6967 2.09392C15.6967 1.22319 15.0332 0.207336 13.1674 0.207336C9.89179 0.207336 8.54423 3.46221 8.27471 5.18295C8.25398 5.32807 8.29545 5.49392 8.3991 5.59758ZM9.43611 4.74761C9.74709 3.58664 10.7007 1.24395 13.1678 1.24395C13.8934 1.24395 14.6812 1.45127 14.6605 2.07322C14.6605 2.48786 14.3081 3.15127 13.3337 3.73176C12.6288 4.16713 11.3849 4.66469 9.43611 4.74761Z" fill="#111111"/>
<path fill-rule="evenodd" clip-rule="evenodd" d="M1.88965 2.07323C1.88965 3.60738 4.02501 5.78421 8.7933 5.78421C8.95915 5.78421 9.10428 5.72201 9.1872 5.59762C9.29086 5.47323 9.33232 5.32811 9.31159 5.18299C9.04208 3.46226 7.69452 0.186646 4.41891 0.186646C2.55306 0.186646 1.88965 1.2025 1.88965 2.07323ZM2.92654 2.09398C2.92654 1.47203 3.69361 1.24398 4.41922 1.24398C6.90702 1.24398 7.83995 3.58667 8.15093 4.74764C4.46068 4.58179 2.92654 2.98545 2.92654 2.09398Z" fill="#111111"/>
</svg>
