<svg width="22" height="22" viewBox="0 0 22 22" fill="none" xmlns="http://www.w3.org/2000/svg">
<path d="M11.0059 9.42792V13.2H17.2447C16.9926 14.8179 15.36 17.9428 11.0059 17.9428C7.25211 17.9428 4.18678 14.8363 4.18678 11C4.18678 7.16375 7.25303 4.05717 11.0059 4.05717C13.1417 4.05717 14.5726 4.96375 15.3921 5.75208L18.3749 2.87558C16.4591 1.08717 13.9749 0 11.0059 0C4.92378 0 0.00585938 4.91792 0.00585938 11C0.00585938 17.0821 4.92378 22 11.0059 22C17.3547 22 21.5659 17.5368 21.5659 11.2512C21.5659 10.5288 21.4879 9.977 21.3926 9.42792H11.0059Z" fill="#111111"/>
</svg>
