<svg width="22" height="22" viewBox="0 0 22 22" fill="none" xmlns="http://www.w3.org/2000/svg">
<path fill-rule="evenodd" clip-rule="evenodd" d="M21.9389 10.4163C21.9387 10.6008 21.9385 10.7854 21.9385 10.9703C21.9385 11.177 21.9388 11.3834 21.9391 11.5897C21.9411 12.8945 21.943 14.1916 21.8672 15.4969C21.7821 17.2527 21.3843 18.8082 20.0977 20.0949C18.8138 21.3788 17.2555 21.7793 15.4997 21.8644C14.1726 21.939 12.8539 21.9376 11.527 21.9361C11.3426 21.9359 11.1579 21.9357 10.9731 21.9357C10.7886 21.9357 10.6043 21.9359 10.4201 21.9361C9.095 21.9376 7.77601 21.9391 6.44645 21.8644C4.69066 21.7793 3.13515 21.3815 1.84848 20.0949C0.564565 18.811 0.164027 17.2527 0.0789808 15.4969C0.00431156 14.1697 0.00577495 12.8489 0.00724365 11.5233C0.00744775 11.339 0.00765196 11.1547 0.00765196 10.9703C0.00765195 10.7858 0.00744769 10.6015 0.00724355 10.4173C0.00577486 9.0922 0.00431296 7.77321 0.0789808 6.44364C0.164027 4.68786 0.561822 3.13234 1.84848 1.84568C3.1324 0.561758 4.69066 0.161219 6.44645 0.0761731C7.77357 0.00150765 9.09223 0.00296716 10.4191 0.0044358C10.6036 0.00463997 10.7882 0.00484433 10.9731 0.00484433C11.1575 0.00484433 11.3418 0.00464006 11.526 0.00443593C12.8512 0.00296725 14.1702 0.00150537 15.4997 0.0761731C17.2555 0.161219 18.811 0.559014 20.0977 1.84568C21.3816 3.12959 21.7821 4.68786 21.8672 6.44364C21.9419 7.77076 21.9404 9.08941 21.9389 10.4163ZM7.31337 10.9703C7.31337 8.95661 8.95667 7.3133 10.9703 7.3133C12.984 7.3133 14.6273 8.95661 14.6273 10.9703C14.6273 12.9839 12.984 14.6273 10.9703 14.6273C8.95667 14.6273 7.31337 12.9839 7.31337 10.9703ZM10.9703 16.597C7.85656 16.597 5.3436 14.0841 5.3436 10.9703C5.3436 7.8565 7.85656 5.34353 10.9703 5.34353C14.0841 5.34353 16.5971 7.8565 16.5971 10.9703C16.5971 14.0841 14.0841 16.597 10.9703 16.597ZM15.5134 5.11308C15.5134 5.84009 16.1005 6.42718 16.8275 6.42718C17.1762 6.42762 17.5107 6.28931 17.7572 6.04277C18.0038 5.79624 18.1421 5.46174 18.1416 5.11308C18.1416 4.38608 17.5545 3.79899 16.8275 3.79899C16.1005 3.79899 15.5134 4.38608 15.5134 5.11308Z" fill="#111111"/>
</svg>
