<svg width="32" height="32" viewBox="0 0 32 32" fill="none" xmlns="http://www.w3.org/2000/svg">
<circle cx="16" cy="16" r="16" fill="#F8F8F8"/>
<path d="M12.7343 20.7894C9.57143 20.7894 7 18.6578 7 15.9999C7 13.342 9.57143 11.2104 12.76 11.2104C13.1714 11.2104 13.5314 11.5526 13.5314 11.9999C13.5314 12.4473 13.1971 12.7894 12.76 12.7894C10.42 12.7894 8.54286 14.2368 8.54286 16.0262C8.54286 17.8157 10.4457 19.2631 12.76 19.2631C15.0743 19.2631 16.9514 17.7631 16.9514 15.9999C16.9514 15.5789 17.2857 15.2104 17.7229 15.2104C18.16 15.2104 18.4943 15.5526 18.4943 15.9999C18.4943 18.6578 15.9229 20.7894 12.7343 20.7894Z" fill="#D8D8D8"/>
<path d="M19.24 20.7894C18.8286 20.7894 18.4686 20.4473 18.4686 19.9999C18.4686 19.5789 18.8028 19.2104 19.24 19.2104C21.58 19.2104 23.4571 17.7631 23.4571 15.9736C23.4571 14.1841 21.5543 12.7368 19.24 12.7368C16.9257 12.7368 15.0228 14.2368 15.0228 15.9999C15.0228 16.421 14.6886 16.7894 14.2514 16.7894C13.84 16.7894 13.48 16.4473 13.48 15.9999C13.48 13.3683 16.0514 11.2104 19.2143 11.2104C22.3771 11.2104 25 13.3683 25 15.9999C25 18.6315 22.4286 20.7894 19.24 20.7894Z" fill="#D8D8D8"/>
</svg>
