<svg width="17" height="11" viewBox="0 0 17 11" fill="none" xmlns="http://www.w3.org/2000/svg">
<path d="M0.76426 4.2L2.79997 10.7556C2.82259 10.8222 2.89045 10.8444 2.93569 10.8444H14.1774C14.2452 10.8444 14.2905 10.8 14.3131 10.7556L16.3262 4.33333C16.4393 4.02222 16.0774 3.73333 15.7833 3.93333L13.7702 5.28888C12.594 6.08888 10.9655 5.64444 10.3774 4.37777L8.83926 1.15555C8.70355 0.888884 8.31902 0.888884 8.20593 1.15555L6.73569 4.33333C6.12497 5.64444 4.45116 6.06666 3.27497 5.22222L1.32974 3.82222C1.03569 3.6 0.651165 3.86666 0.76426 4.2Z" fill="black"/>
<path d="M0.76426 4.2L2.79997 10.7556C2.82259 10.8222 2.89045 10.8444 2.93569 10.8444H14.1774C14.2452 10.8444 14.2905 10.8 14.3131 10.7556L16.3262 4.33333C16.4393 4.02222 16.0774 3.73333 15.7833 3.93333L13.7702 5.28888C12.594 6.08888 10.9655 5.64444 10.3774 4.37777L8.83926 1.15555C8.70355 0.888884 8.31902 0.888884 8.20593 1.15555L6.73569 4.33333C6.12497 5.64444 4.45116 6.06666 3.27497 5.22222L1.32974 3.82222C1.03569 3.6 0.651165 3.86666 0.76426 4.2Z" fill="url(#paint0_linear)"/>
<defs>
<linearGradient id="paint0_linear" x1="0.744019" y1="0.955551" x2="0.744019" y2="10.8444" gradientUnits="userSpaceOnUse">
<stop stop-color="#F6CC4C"/>
<stop offset="1" stop-color="#F2AB36"/>
</linearGradient>
</defs>
</svg>
