<svg width="26" height="20" viewBox="0 0 26 20" fill="none" xmlns="http://www.w3.org/2000/svg">
<path d="M9 8H17" stroke="#EA384D" stroke-width="1.1" stroke-linecap="round" stroke-linejoin="round"/>
<path d="M9 12H17" stroke="#EA384D" stroke-width="1.1" stroke-linecap="round" stroke-linejoin="round"/>
<path d="M25 7.42966C25.2761 7.42966 25.5 7.2058 25.5 6.92966V2.43494C25.5 1.29403 24.4815 0.5 23.3515 0.5H2.64848C1.51852 0.5 0.5 1.29403 0.5 2.43494V6.92966C0.5 7.2058 0.723858 7.42966 1 7.42966C2.73537 7.42966 4.03939 8.64441 4.03939 9.98945C4.03939 11.3406 2.75253 12.5703 1 12.5703C0.723858 12.5703 0.5 12.7942 0.5 13.0703V17.5651C0.5 18.706 1.51852 19.5 2.64848 19.5H23.3515C24.4815 19.5 25.5 18.706 25.5 17.5651V13.0703C25.5 12.7963 25.2794 12.5734 25.0054 12.5704C23.2699 12.5515 21.9848 11.3384 21.9848 9.98945C21.9848 8.64032 23.2694 7.42966 25 7.42966Z" stroke="#EA384D" stroke-linejoin="round"/>
</svg>
