<svg width="64" height="64" viewBox="0 0 64 64" fill="none" xmlns="http://www.w3.org/2000/svg">
<g filter="url(#filter0_d)">
<rect x="4" y="4" width="56" height="56" rx="22" fill="white"/>
<rect x="4" y="4" width="56" height="56" rx="22" fill="url(#paint0_linear)"/>
</g>
<path fill-rule="evenodd" clip-rule="evenodd" d="M19 41V30H45V41C45 43.2091 43.2091 45 41 45H23C20.7909 45 19 43.2091 19 41ZM31.9132 37.9421C31.0921 37.9421 30.4421 37.2921 30.4421 36.4711C30.4421 35.65 31.0921 35 31.9132 35C32.7342 35 33.3842 35.65 33.3842 36.4711C33.3842 37.2921 32.7342 37.9421 31.9132 37.9421ZM35.8842 36.4711C35.8842 37.2921 36.5342 37.9421 37.3553 37.9421C38.1763 37.9421 38.8263 37.2921 38.8263 36.4711C38.8263 35.65 38.1763 35 37.3553 35C36.5342 35 35.8842 35.65 35.8842 36.4711ZM25 36.4711C25 37.2921 25.65 37.9421 26.4711 37.9421C27.2579 37.9421 27.9079 37.2921 27.9421 36.4711C27.9421 35.65 27.2921 35 26.4711 35C25.65 35 25 35.65 25 36.4711Z" fill="white"/>
<path d="M19 26C19 23.7909 20.7909 22 23 22H41C43.2091 22 45 23.7909 45 26V30H19V26Z" fill="white" fill-opacity="0.6"/>
<rect x="36" y="20" width="2.3" height="5" rx="1.15" fill="white"/>
<rect x="26" y="20" width="2.3" height="5" rx="1.15" fill="white"/>
<defs>
<filter id="filter0_d" x="0" y="0" width="64" height="64" filterUnits="userSpaceOnUse" color-interpolation-filters="sRGB">
<feFlood flood-opacity="0" result="BackgroundImageFix"/>
<feColorMatrix in="SourceAlpha" type="matrix" values="0 0 0 0 0 0 0 0 0 0 0 0 0 0 0 0 0 0 127 0"/>
<feOffset/>
<feGaussianBlur stdDeviation="2"/>
<feColorMatrix type="matrix" values="0 0 0 0 0 0 0 0 0 0 0 0 0 0 0 0 0 0 0.04 0"/>
<feBlend mode="normal" in2="BackgroundImageFix" result="effect1_dropShadow"/>
<feBlend mode="normal" in="SourceGraphic" in2="effect1_dropShadow" result="shape"/>
</filter>
<linearGradient id="paint0_linear" x1="4" y1="4" x2="4" y2="60" gradientUnits="userSpaceOnUse">
<stop stop-color="#C2E9FB"/>
<stop offset="1" stop-color="#A1C4FD"/>
</linearGradient>
</defs>
</svg>
