<svg width="22" height="22" viewBox="0 0 22 22" fill="none" xmlns="http://www.w3.org/2000/svg">
<path d="M21.8036 21.6399C21.8036 21.8363 21.6399 22 21.4435 22H0.360119C0.16369 22 0 21.8363 0 21.6399C0.130952 17.253 2.88095 13.5209 6.74405 11.9167C7.95536 12.5387 9.29762 12.8661 10.7381 12.8661C12.244 12.8661 13.6518 12.506 14.8958 11.8185C18.8244 13.3572 21.6726 17.1548 21.8036 21.6399Z" fill="#FFE256"/>
<path d="M16.0089 5.23809C16.0089 6.94048 15.2232 8.44643 13.9792 9.39583C13.0952 10.0833 12.0149 10.4762 10.8036 10.5089H10.7054C9.52679 10.5089 8.41369 10.0833 7.52976 9.39583C6.28571 8.44643 5.5 6.94048 5.5 5.23809C5.5 2.3244 7.85714 0 10.7381 0C13.619 0 16.0089 2.35714 16.0089 5.23809Z" fill="#FFE256"/>
</svg>
