<svg width="19" height="22" viewBox="0 0 19 22" fill="none" xmlns="http://www.w3.org/2000/svg">
<path fill-rule="evenodd" clip-rule="evenodd" d="M17.5524 7.87417C17.4307 6.04946 15.9152 4.63158 14.0864 4.63158H13.8625C13.8625 2.07363 11.7889 0 9.23093 0C6.67298 0 4.59935 2.07363 4.59935 4.63158H4.37552C2.54676 4.63158 1.03117 6.04946 0.909471 7.87417L0.214735 18.2952C0.150775 19.2545 0.487253 20.1974 1.14408 20.8995C1.80091 21.6016 2.71933 22 3.68075 22H14.7811C15.7425 22 16.6609 21.6015 17.3177 20.8995C17.9746 20.1974 18.311 19.2545 18.2471 18.2952L17.5524 7.87417ZM9.23092 1.15789C11.1485 1.16003 12.7025 2.714 12.7046 4.63158H5.75724C5.75941 2.71402 7.31336 1.16006 9.23092 1.15789ZM14.7811 20.8421C15.4226 20.8449 16.036 20.5788 16.4722 20.1085C16.9125 19.6419 17.1372 19.0122 17.0919 18.3722L16.3971 7.95119C16.3131 6.73606 15.3044 5.7924 14.0864 5.78947H4.37553C3.15752 5.79241 2.14883 6.73608 2.06485 7.95119L1.37012 18.3722C1.32744 19.0118 1.55174 19.6404 1.98962 20.1084C2.4275 20.5765 3.0398 20.8421 3.68075 20.8421H14.7811Z" fill="black"/>
</svg>
