<svg width="20" height="31" viewBox="0 0 20 31" fill="none" xmlns="http://www.w3.org/2000/svg">
<g clip-path="url(#clip0)">
<path fill-rule="evenodd" clip-rule="evenodd" d="M19.966 6.81312L18.9405 11.505L19.966 16.1968C20.1273 16.9408 19.7005 17.6863 18.9838 17.9122L15.7774 18.9386L14.463 19.3638L12.8887 20.83L10.9822 22.6187C10.71 22.8607 10.3617 22.9959 10 23C9.63706 23.0027 9.28642 22.8666 9.01784 22.6187L7.11131 20.83L5.53697 19.3638L4.22261 18.9386L1.01617 17.9122C0.299476 17.6863 -0.127341 16.9408 0.0340104 16.1968L1.0595 11.505L0.0340104 6.81312C-0.118975 6.07402 0.306132 5.33786 1.01617 5.11233L5.53697 3.64613L9.01784 0.391164C9.57183 -0.130388 10.4282 -0.130388 10.9822 0.391164L14.463 3.63147L18.9838 5.09766C19.7005 5.32363 20.1273 6.06912 19.966 6.81312ZM16 21L15.4 21.1891L12.04 24.2146C10.8915 25.2405 9.12351 25.2405 7.975 24.2146L4.6 21.1891L4 21V29.5529C4.00284 30.0865 4.30677 30.5758 4.79188 30.8277C5.277 31.0796 5.86542 31.0537 6.325 30.7602L10 28.3893L13.705 30.7602C14.1556 31.0429 14.7276 31.0707 15.205 30.8329C15.693 30.581 15.9985 30.0891 16 29.5529V21Z" fill="url(#paint0_linear)"/>
<path d="M9.06335 15V9.258L7.89735 10.138L7.11635 8.774L9.25035 7.212H10.7904V15H9.06335Z" fill="white"/>
</g>
<defs>
<linearGradient id="paint0_linear" x1="0" y1="0" x2="0" y2="31" gradientUnits="userSpaceOnUse">
<stop stop-color="#F8B500"/>
<stop offset="1" stop-color="#FCEABB"/>
</linearGradient>
<clipPath id="clip0">
<rect width="20" height="31" fill="white"/>
</clipPath>
</defs>
</svg>
