<svg width="20" height="31" viewBox="0 0 20 31" fill="none" xmlns="http://www.w3.org/2000/svg">
<g clip-path="url(#clip0)">
<path fill-rule="evenodd" clip-rule="evenodd" d="M19.966 6.81312L18.9405 11.505L19.966 16.1968C20.1273 16.9408 19.7005 17.6863 18.9838 17.9122L15.7774 18.9386L14.463 19.3638L12.8887 20.83L10.9822 22.6187C10.71 22.8607 10.3617 22.9959 10 23C9.63706 23.0027 9.28642 22.8666 9.01784 22.6187L7.11131 20.83L5.53697 19.3638L4.22261 18.9386L1.01617 17.9122C0.299476 17.6863 -0.127341 16.9408 0.0340104 16.1968L1.0595 11.505L0.0340104 6.81312C-0.118975 6.07402 0.306132 5.33786 1.01617 5.11233L5.53697 3.64613L9.01784 0.391164C9.57183 -0.130388 10.4282 -0.130388 10.9822 0.391164L14.463 3.63147L18.9838 5.09766C19.7005 5.32363 20.1273 6.06912 19.966 6.81312ZM16 21L15.4 21.1891L12.04 24.2146C10.8915 25.2405 9.12351 25.2405 7.975 24.2146L4.6 21.1891L4 21V29.5529C4.00284 30.0865 4.30677 30.5758 4.79188 30.8277C5.277 31.0796 5.86542 31.0537 6.325 30.7602L10 28.3893L13.705 30.7602C14.1556 31.0429 14.7276 31.0707 15.205 30.8329C15.693 30.581 15.9985 30.0891 16 29.5529V21Z" fill="url(#paint0_linear)"/>
<path d="M11.8354 9.357C11.8354 9.61367 11.8024 9.852 11.7364 10.072C11.6704 10.292 11.5824 10.501 11.4724 10.699C11.3624 10.897 11.2377 11.0877 11.0984 11.271C10.959 11.4543 10.816 11.6303 10.6694 11.799L9.21735 13.482H11.7364V15H7.12735V13.438L9.49235 10.721C9.68302 10.501 9.83335 10.2773 9.94335 10.05C10.0534 9.81533 10.1084 9.59167 10.1084 9.379C10.1084 9.15167 10.0534 8.95733 9.94335 8.796C9.84068 8.63467 9.67568 8.554 9.44835 8.554C9.23569 8.554 9.05969 8.642 8.92035 8.818C8.78102 8.98667 8.69669 9.236 8.66735 9.566L7.01735 9.412C7.10535 8.62 7.37302 8.02967 7.82035 7.641C8.27502 7.245 8.83602 7.047 9.50335 7.047C9.86268 7.047 10.1854 7.102 10.4714 7.212C10.7574 7.322 10.9994 7.476 11.1974 7.674C11.4027 7.872 11.5604 8.114 11.6704 8.4C11.7804 8.686 11.8354 9.005 11.8354 9.357Z" fill="white"/>
</g>
<defs>
<linearGradient id="paint0_linear" x1="0" y1="0" x2="0" y2="31" gradientUnits="userSpaceOnUse">
<stop stop-color="#C9D6FF"/>
<stop offset="1" stop-color="#E5E5E5"/>
</linearGradient>
<clipPath id="clip0">
<rect width="20" height="31" fill="white"/>
</clipPath>
</defs>
</svg>
