<svg width="20" height="31" viewBox="0 0 20 31" fill="none" xmlns="http://www.w3.org/2000/svg">
<g clip-path="url(#clip0)">
<path fill-rule="evenodd" clip-rule="evenodd" d="M19.966 6.81312L18.9405 11.505L19.966 16.1968C20.1273 16.9408 19.7005 17.6863 18.9838 17.9122L15.7774 18.9386L14.463 19.3638L12.8887 20.83L10.9822 22.6187C10.71 22.8607 10.3617 22.9959 10 23C9.63706 23.0027 9.28642 22.8666 9.01784 22.6187L7.11131 20.83L5.53697 19.3638L4.22261 18.9386L1.01617 17.9122C0.299476 17.6863 -0.127341 16.9408 0.0340104 16.1968L1.0595 11.505L0.0340104 6.81312C-0.118975 6.07402 0.306132 5.33786 1.01617 5.11233L5.53697 3.64613L9.01784 0.391164C9.57183 -0.130388 10.4282 -0.130388 10.9822 0.391164L14.463 3.63147L18.9838 5.09766C19.7005 5.32363 20.1273 6.06912 19.966 6.81312ZM16 21L15.4 21.1891L12.04 24.2146C10.8915 25.2405 9.12351 25.2405 7.975 24.2146L4.6 21.1891L4 21V29.5529C4.00284 30.0865 4.30677 30.5758 4.79188 30.8277C5.277 31.0796 5.86542 31.0537 6.325 30.7602L10 28.3893L13.705 30.7602C14.1556 31.0429 14.7276 31.0707 15.205 30.8329C15.693 30.581 15.9985 30.0891 16 29.5529V21Z" fill="url(#paint0_linear)"/>
<path d="M11.8904 12.723C11.8904 13.119 11.8244 13.4673 11.6924 13.768C11.5677 14.0687 11.3954 14.3253 11.1754 14.538C10.9554 14.7433 10.695 14.8973 10.3944 15C10.101 15.11 9.78202 15.165 9.43735 15.165C8.79935 15.165 8.25302 15.0037 7.79835 14.681C7.34368 14.351 7.04302 13.8523 6.89635 13.185L8.44735 12.789C8.50602 13.0457 8.60869 13.2547 8.75535 13.416C8.90202 13.5773 9.10368 13.658 9.36035 13.658C9.49969 13.658 9.62069 13.6287 9.72335 13.57C9.82602 13.5113 9.91035 13.4343 9.97635 13.339C10.0497 13.2437 10.101 13.1373 10.1304 13.02C10.167 12.8953 10.1854 12.7707 10.1854 12.646C10.1854 12.3087 10.0864 12.0593 9.88835 11.898C9.69769 11.7367 9.44102 11.656 9.11835 11.656H8.72235V10.358H9.16235C9.45569 10.358 9.67935 10.2737 9.83335 10.105C9.99469 9.929 10.0754 9.687 10.0754 9.379C10.0754 9.181 10.0167 8.994 9.89935 8.818C9.78935 8.642 9.60968 8.554 9.36035 8.554C9.14769 8.554 8.98269 8.62367 8.86535 8.763C8.74802 8.90233 8.66002 9.07833 8.60135 9.291L7.09435 8.917C7.18235 8.57967 7.30702 8.29367 7.46835 8.059C7.63702 7.82433 7.82402 7.63367 8.02935 7.487C8.24202 7.333 8.47302 7.223 8.72235 7.157C8.97168 7.08367 9.22469 7.047 9.48135 7.047C9.76735 7.047 10.0424 7.091 10.3064 7.179C10.5777 7.267 10.8197 7.399 11.0324 7.575C11.245 7.751 11.4137 7.971 11.5384 8.235C11.6704 8.499 11.7364 8.807 11.7364 9.159C11.7364 9.61367 11.6374 9.99867 11.4394 10.314C11.2487 10.622 10.992 10.8273 10.6694 10.93V10.963C11.0434 11.0657 11.3404 11.2783 11.5604 11.601C11.7804 11.9237 11.8904 12.2977 11.8904 12.723Z" fill="white"/>
</g>
<defs>
<linearGradient id="paint0_linear" x1="0" y1="0" x2="0" y2="31" gradientUnits="userSpaceOnUse">
<stop stop-color="#D6AE7B"/>
<stop offset="1" stop-color="#EACDA3"/>
</linearGradient>
<clipPath id="clip0">
<rect width="20" height="31" fill="white"/>
</clipPath>
</defs>
</svg>
