<svg width="64" height="64" viewBox="0 0 64 64" fill="none" xmlns="http://www.w3.org/2000/svg">
<g filter="url(#filter0_d)">
<rect x="4" y="4" width="56" height="56" rx="22" fill="url(#paint0_linear)"/>
</g>
<path fill-rule="evenodd" clip-rule="evenodd" d="M35.9941 27.2456L44.1561 28.035C44.6827 28.0789 44.9459 28.8245 44.5071 29.1754L38.3637 34.5701L40.2067 42.5526C40.3384 43.1228 39.7679 43.5614 39.2413 43.2543L32.1324 39.1754L25.0236 43.2982C24.497 43.5614 23.9265 43.1666 24.0582 42.5964L25.8573 34.614L19.7139 29.2193C19.3189 28.8245 19.5384 28.0789 20.1088 28.035L28.2708 27.2456L31.5181 19.7456C31.7814 19.2193 32.5713 19.2193 32.7468 19.7456L35.9941 27.2456ZM32.9972 28.92V36H31.4272V30.78L30.3672 31.58L29.6572 30.34L31.5972 28.92H32.9972Z" fill="white"/>
<path d="M23.0483 18.1667C23.4871 18.8246 24.8035 21.5438 25.5056 23.0789C25.6373 23.3421 25.3301 23.5175 25.1107 23.3421C23.7942 22.1579 21.6879 20.0965 21.2052 19.4386C20.8103 18.9123 20.9419 18.2544 21.4685 17.9035C21.9951 17.5526 22.6972 17.6842 23.0483 18.1667Z" fill="white" fill-opacity="0.6"/>
<path d="M41.2156 18.1667C40.7768 18.8246 39.4604 21.5438 38.7583 23.0789C38.6266 23.3421 38.9338 23.5175 39.1532 23.3421C40.4696 22.1579 42.576 20.0965 43.0587 19.4386C43.4536 18.9123 43.322 18.2544 42.7954 17.9035C42.3566 17.5526 41.6106 17.6842 41.2156 18.1667Z" fill="white" fill-opacity="0.6"/>
<path d="M48.4118 36.6315C47.7097 36.3684 44.7257 35.9736 42.9705 35.7982C42.7072 35.7543 42.5755 36.1052 42.8388 36.2368C44.3747 37.0701 46.9637 38.5175 47.7536 38.7807C48.3241 38.9561 48.9823 38.6491 49.1578 38.0789C49.3333 37.4649 49.0262 36.8508 48.4118 36.6315Z" fill="white" fill-opacity="0.6"/>
<path d="M15.8516 36.6315C16.5537 36.3684 19.5377 35.9736 21.293 35.7982C21.5563 35.7543 21.6879 36.1052 21.4246 36.2368C19.8887 37.0701 17.2997 38.5175 16.5098 38.7807C15.9394 38.9561 15.2812 38.6491 15.1056 38.0789C14.9301 37.4649 15.2373 36.8508 15.8516 36.6315Z" fill="white" fill-opacity="0.6"/>
<path d="M31.0791 49.2193C31.0791 48.4298 31.6057 45.5351 31.9129 43.7807C31.9567 43.5175 32.3517 43.5175 32.4394 43.7807C32.7466 45.4473 33.2732 48.4298 33.2732 49.2193C33.2732 49.7895 32.7466 50.3158 32.1761 50.3158C31.5618 50.3158 31.0791 49.8333 31.0791 49.2193Z" fill="white" fill-opacity="0.6"/>
<defs>
<filter id="filter0_d" x="0" y="0" width="64" height="64" filterUnits="userSpaceOnUse" color-interpolation-filters="sRGB">
<feFlood flood-opacity="0" result="BackgroundImageFix"/>
<feColorMatrix in="SourceAlpha" type="matrix" values="0 0 0 0 0 0 0 0 0 0 0 0 0 0 0 0 0 0 127 0"/>
<feOffset/>
<feGaussianBlur stdDeviation="2"/>
<feColorMatrix type="matrix" values="0 0 0 0 0 0 0 0 0 0 0 0 0 0 0 0 0 0 0.04 0"/>
<feBlend mode="normal" in2="BackgroundImageFix" result="effect1_dropShadow"/>
<feBlend mode="normal" in="SourceGraphic" in2="effect1_dropShadow" result="shape"/>
</filter>
<linearGradient id="paint0_linear" x1="4" y1="4" x2="4" y2="60" gradientUnits="userSpaceOnUse">
<stop stop-color="#FCC687"/>
<stop offset="1" stop-color="#F286A0"/>
</linearGradient>
</defs>
</svg>
