<svg width="16" height="22" viewBox="0 0 16 22" fill="none" xmlns="http://www.w3.org/2000/svg">
<path fill-rule="evenodd" clip-rule="evenodd" d="M8 16C3.5493 16 0 12.4444 0 7.98589C0 3.52734 3.5493 0 8 0C12.4507 0 16 3.55556 16 8.01411C16 12.4727 12.4225 16 8 16ZM12.2353 15.9412V20.6625C12.2353 21.1902 11.8879 21.5512 11.3802 21.5512C11.2199 21.5512 11.0328 21.5512 10.9527 21.4679L8.41418 19.8849C8.17369 19.7182 7.82631 19.7182 7.5591 19.8849L5.0206 21.4679C4.59306 21.7178 4.08536 21.5512 3.84487 21.2179C3.76471 21.0513 3.76471 20.8569 3.76471 20.6903V15.9689C5.0206 16.6633 6.46354 17.0243 7.98664 17.0243C9.50974 17.0243 10.9794 16.6633 12.2353 15.9412ZM8.02609 9.94073L10.2758 11.2043L9.83756 8.55383L11.6783 6.6738L9.16557 6.30396L8.02609 3.9L6.88661 6.30396L4.37391 6.6738L6.21461 8.55383L5.77635 11.2043L8.02609 9.94073Z" fill="black"/>
</svg>
