<svg width="64" height="64" viewBox="0 0 64 64" fill="none" xmlns="http://www.w3.org/2000/svg">
<g filter="url(#filter0_d)">
<rect x="4" y="4" width="56" height="56" rx="22" fill="url(#paint0_linear)"/>
</g>
<path fill-rule="evenodd" clip-rule="evenodd" d="M19 29V39.88C19 42.0891 20.7909 43.88 23 43.88H41C43.2091 43.88 45 42.0891 45 39.88V29H36.0539C35.2447 30.1956 33.7323 31 32 31C30.2677 31 28.7553 30.1956 27.9461 29H19ZM31.7269 40.58C31.8629 40.932 32.1229 41.108 32.5069 41.108C32.6989 41.108 32.8589 41.064 32.9869 40.976C33.1229 40.88 33.2229 40.748 33.2869 40.58L36.3469 32.648C36.2589 32.608 36.1469 32.572 36.0109 32.54C35.8749 32.508 35.7549 32.492 35.6509 32.492C35.0269 32.492 34.6189 32.748 34.4269 33.26L32.2669 39.248L32.1349 39.2L32.4229 38.432L30.5749 33.26C30.3909 32.748 29.9829 32.492 29.3509 32.492C29.2469 32.492 29.1269 32.508 28.9909 32.54C28.8549 32.572 28.7469 32.608 28.6669 32.648L31.7269 40.58Z" fill="white"/>
<path fill-rule="evenodd" clip-rule="evenodd" d="M23 21C20.7909 21 19 22.7909 19 25V29H27.9461C28.7553 30.1956 30.2677 31 32 31C33.7323 31 35.2447 30.1956 36.0539 29H45V25C45 22.7909 43.2091 21 41 21H23Z" fill="white" fill-opacity="0.6"/>
<defs>
<filter id="filter0_d" x="0" y="0" width="64" height="64" filterUnits="userSpaceOnUse" color-interpolation-filters="sRGB">
<feFlood flood-opacity="0" result="BackgroundImageFix"/>
<feColorMatrix in="SourceAlpha" type="matrix" values="0 0 0 0 0 0 0 0 0 0 0 0 0 0 0 0 0 0 127 0"/>
<feOffset/>
<feGaussianBlur stdDeviation="2"/>
<feColorMatrix type="matrix" values="0 0 0 0 0 0 0 0 0 0 0 0 0 0 0 0 0 0 0.04 0"/>
<feBlend mode="normal" in2="BackgroundImageFix" result="effect1_dropShadow"/>
<feBlend mode="normal" in="SourceGraphic" in2="effect1_dropShadow" result="shape"/>
</filter>
<linearGradient id="paint0_linear" x1="4" y1="4" x2="4" y2="60" gradientUnits="userSpaceOnUse">
<stop stop-color="#D4FC79"/>
<stop offset="1" stop-color="#96E6A1"/>
</linearGradient>
</defs>
</svg>
