<svg width="36" height="34" viewBox="0 0 36 34" fill="none" xmlns="http://www.w3.org/2000/svg">
<path fill-rule="evenodd" clip-rule="evenodd" d="M21.9941 10.2456L30.1561 11.035C30.6827 11.0789 30.9459 11.8245 30.5071 12.1754L24.3637 17.5701L26.2067 25.5526C26.3384 26.1228 25.7679 26.5614 25.2413 26.2543L18.1324 22.1754L11.0236 26.2982C10.497 26.5614 9.92654 26.1666 10.0582 25.5964L11.8573 17.614L5.71388 12.2193C5.31895 11.8245 5.53836 11.0789 6.10882 11.035L14.2708 10.2456L17.5181 2.74557C17.7814 2.21925 18.5713 2.21925 18.7468 2.74557L21.9941 10.2456ZM18.9972 11.92V19H17.4272V13.78L16.3672 14.58L15.6572 13.34L17.5972 11.92H18.9972Z" fill="white"/>
<path d="M9.04826 1.16666C9.48708 1.82455 10.8035 4.54385 11.5056 6.07894C11.6373 6.3421 11.3301 6.51753 11.1107 6.3421C9.79425 5.15788 7.68792 3.09648 7.20522 2.43859C6.81028 1.91227 6.94193 1.25438 7.46851 0.903499C7.99509 0.552622 8.6972 0.684201 9.04826 1.16666Z" fill="white" fill-opacity="0.6"/>
<path d="M27.2156 1.16666C26.7768 1.82455 25.4604 4.54385 24.7583 6.07894C24.6266 6.3421 24.9338 6.51753 25.1532 6.3421C26.4696 5.15788 28.576 3.09648 29.0587 2.43859C29.4536 1.91227 29.322 1.25438 28.7954 0.903499C28.3566 0.552622 27.6106 0.684201 27.2156 1.16666Z" fill="white" fill-opacity="0.6"/>
<path d="M34.4118 19.6315C33.7097 19.3684 30.7257 18.9736 28.9705 18.7982C28.7072 18.7543 28.5755 19.1052 28.8388 19.2368C30.3747 20.0701 32.9637 21.5175 33.7536 21.7807C34.3241 21.9561 34.9823 21.6491 35.1578 21.0789C35.3333 20.4649 35.0262 19.8508 34.4118 19.6315Z" fill="white" fill-opacity="0.6"/>
<path d="M1.85161 19.6315C2.55372 19.3684 5.53769 18.9736 7.29296 18.7982C7.55626 18.7543 7.6879 19.1052 7.42461 19.2368C5.88875 20.0701 3.29972 21.5175 2.50984 21.7807C1.93938 21.9561 1.28115 21.6491 1.10562 21.0789C0.930095 20.4649 1.23727 19.8508 1.85161 19.6315Z" fill="white" fill-opacity="0.6"/>
<path d="M17.0791 32.2193C17.0791 31.4298 17.6057 28.5351 17.9129 26.7807C17.9567 26.5175 18.3517 26.5175 18.4394 26.7807C18.7466 28.4473 19.2732 31.4298 19.2732 32.2193C19.2732 32.7895 18.7466 33.3158 18.1761 33.3158C17.5618 33.3158 17.0791 32.8333 17.0791 32.2193Z" fill="white" fill-opacity="0.6"/>
</svg>
