<svg width="22" height="18" viewBox="0 0 22 18" fill="none" xmlns="http://www.w3.org/2000/svg">
<path d="M21.8486 2.13652C21.029 2.49736 20.1608 2.73554 19.2719 2.84341C20.2078 2.28087 20.9086 1.39867 21.2448 0.359741C20.3774 0.86596 19.416 1.23445 18.3926 1.43967C17.0044 -0.0448352 14.7917 -0.410955 12.9993 0.547262C11.2068 1.50548 10.2822 3.54876 10.7455 5.52773C7.01501 5.3517 3.70862 3.56032 1.49585 0.852279C1.09343 1.53619 0.883524 2.31623 0.888391 3.10974C0.888391 4.66944 1.68192 6.04034 2.88408 6.84573C2.1716 6.82305 1.47485 6.63041 0.851907 6.28387V6.33951C0.851074 8.47658 2.35652 10.3181 4.45108 10.7422C3.79281 10.9186 3.10336 10.9451 2.4335 10.8198C3.02483 12.6483 4.71142 13.9001 6.63284 13.9364C5.04531 15.1823 3.08517 15.8585 1.06716 15.8564C0.711443 15.8564 0.356634 15.8354 0 15.7953C2.05745 17.1127 4.44972 17.812 6.89279 17.8102C15.151 17.8102 19.6614 10.973 19.6614 5.05344C19.6614 4.86281 19.6614 4.67035 19.6477 4.47881C20.5288 3.84476 21.2888 3.05757 21.8915 2.15477L21.8486 2.13652Z" fill="#111111"/>
</svg>
