<svg width="25" height="25" viewBox="0 0 25 25" fill="none" xmlns="http://www.w3.org/2000/svg">
<path fill-rule="evenodd" clip-rule="evenodd" d="M23.9638 11.4536L22.883 9.69517C22.7447 9.4702 22.675 9.20982 22.6823 8.94585L22.739 6.88265C22.7531 6.3703 22.4779 5.89357 22.0271 5.64961L20.2119 4.66715C19.9797 4.54152 19.7891 4.35091 19.6634 4.11864L18.6809 2.30348C18.4434 1.86459 17.9845 1.59112 17.4855 1.59106L17.4479 1.59156L15.3847 1.64832L15.347 1.64882C15.0957 1.64881 14.8494 1.57916 14.6354 1.44761L12.8769 0.366842C12.4403 0.0984223 11.8898 0.0984223 11.4531 0.366842L9.69467 1.44759C9.48061 1.57916 9.23428 1.64881 8.98302 1.64881L8.9454 1.64832L6.8822 1.59157L6.84461 1.59107C6.34557 1.59113 5.88668 1.86461 5.64916 2.30349L4.66664 4.11864C4.54102 4.35091 4.3504 4.54152 4.11813 4.66715L2.30297 5.64967C1.85221 5.89362 1.57696 6.37036 1.59107 6.88271L1.64782 8.94591C1.65511 9.20988 1.58536 9.47025 1.44709 9.69523L0.366323 11.4536C0.0979443 11.8903 0.0979443 12.4408 0.366323 12.8775L1.44709 14.6359C1.58536 14.8609 1.65511 15.1213 1.64782 15.3852L1.59107 17.4484C1.57696 17.9608 1.85221 18.4375 2.30297 18.6815L4.07656 19.6415L4.07607 19.6433H4.07995L4.11813 19.6639C4.3504 19.7896 4.54102 19.9802 4.66664 20.2125L5.64916 22.0276C5.88668 22.4665 6.34557 22.74 6.84461 22.74L6.8822 22.7395L8.9454 22.6828L8.98307 22.6823C9.23433 22.6823 9.48066 22.7519 9.69472 22.8835L11.4531 23.9642C11.8898 24.2327 12.4403 24.2327 12.8769 23.9642L14.6354 22.8835C14.8494 22.7519 15.0957 22.6823 15.347 22.6823L15.3847 22.6828L17.4479 22.7395L17.4855 22.74C17.9845 22.74 18.4434 22.4665 18.6809 22.0276L19.6634 20.2124C19.7891 19.9802 19.9797 19.7896 20.2119 19.6639L20.2501 19.6433H20.254L20.2535 19.6414L22.0271 18.6814C22.4779 18.4375 22.7531 17.9607 22.739 17.4484L22.6823 15.3852C22.675 15.1212 22.7447 14.8608 22.883 14.6359L23.9638 12.8775C24.2321 12.4408 24.2321 11.8903 23.9638 11.4536ZM18.4677 19.5653L17.4853 21.3804L15.4229 21.3237L15.3662 21.3227H15.347C14.8444 21.3226 14.3516 21.4619 13.9234 21.7252L12.165 22.806L10.4065 21.7251C9.9784 21.4619 9.48564 21.3226 8.98306 21.3227L8.92671 21.3232L8.90796 21.3237L6.84484 21.3804L5.8625 19.5657C5.78726 19.446 5.70271 19.3325 5.60961 19.2262C6.04071 18.2424 7.01217 17.6061 8.08628 17.6039H16.2438C17.3179 17.6061 18.2893 18.2424 18.7204 19.2261C18.6274 19.3324 18.5429 19.4458 18.4677 19.5653ZM21.3232 15.4226C21.3082 14.8947 21.4478 14.3738 21.7246 13.924L22.8055 12.1655L21.7248 10.4071C21.4478 9.95728 21.3082 9.43631 21.3232 8.90823L21.3799 6.84528L19.5648 5.86285C19.0999 5.61179 18.7185 5.23033 18.4676 4.76541L17.4852 2.95066L15.4221 3.00742L15.4034 3.00791L15.347 3.00841C14.8444 3.00849 14.3517 2.86918 13.9235 2.60597L12.165 1.5251L10.4066 2.60589C9.97848 2.86915 9.48569 3.0085 8.98307 3.00844H8.9639L8.90714 3.00736L6.84477 2.95067L5.86235 4.76583C5.61128 5.2307 5.22983 5.61206 4.7649 5.86301L2.95015 6.84536L3.00686 8.90848C3.02183 9.43643 2.88233 9.95727 2.60547 10.4071L1.5246 12.1655L2.60531 13.9239C2.88227 14.3738 3.02184 14.8948 3.00686 15.4229L2.95015 17.4858L4.53528 18.3437C5.248 17.0491 6.60851 16.2448 8.08628 16.2443H16.2438C17.7216 16.2448 19.0822 17.0491 19.7949 18.3438L21.3799 17.4857L21.3232 15.4226ZM12.1651 5.36761C9.53704 5.36761 7.40657 7.49809 7.40657 10.1262C7.40657 12.7542 9.53704 14.8847 12.1651 14.8847C14.7932 14.8847 16.9237 12.7542 16.9237 10.1262C16.9237 7.49809 14.7932 5.36761 12.1651 5.36761ZM8.76615 10.1262C8.76615 12.0034 10.2879 13.5251 12.1651 13.5251C14.0414 13.523 15.562 12.0025 15.5641 10.1262C15.5641 8.24897 14.0423 6.7272 12.1651 6.7272C10.2879 6.7272 8.76615 8.24897 8.76615 10.1262Z" fill="#111111"/>
</svg>
