<svg width="16" height="16" viewBox="0 0 16 16" fill="none" xmlns="http://www.w3.org/2000/svg">
<path d="M15.8356 15.553C15.8356 15.6941 15.718 15.8118 15.5768 15.8118H0.423863C0.282686 15.8118 0.165039 15.6941 0.165039 15.553C0.259157 12.4 2.23563 9.71767 5.0121 8.56473C5.88269 9.01179 6.84739 9.24708 7.88269 9.24708C8.96504 9.24708 9.9768 8.98826 10.8709 8.49414C13.6945 9.60002 15.7415 12.3294 15.8356 15.553Z" fill="#EAC500"/>
<path d="M11.6711 3.76471C11.6711 4.98824 11.1064 6.07059 10.2123 6.75294C9.57699 7.24706 8.80052 7.52941 7.92993 7.55294H7.85934C7.01228 7.55294 6.21228 7.24706 5.57699 6.75294C4.68287 6.07059 4.11816 4.98824 4.11816 3.76471C4.11816 1.67059 5.81228 0 7.88287 0C9.95346 0 11.6711 1.69412 11.6711 3.76471Z" fill="#EDD552"/>
</svg>
