<svg width="25" height="25" viewBox="0 0 25 25" fill="none" xmlns="http://www.w3.org/2000/svg">
<path fill-rule="evenodd" clip-rule="evenodd" d="M23.9647 11.4536L22.884 9.69517C22.7457 9.4702 22.6759 9.20982 22.6832 8.94585L22.74 6.88265C22.7541 6.3703 22.4788 5.89357 22.0281 5.64961L20.2129 4.66715C19.9807 4.54152 19.79 4.35091 19.6644 4.11864L18.6819 2.30348C18.4444 1.86459 17.9855 1.59112 17.4864 1.59106L17.4489 1.59156L15.3857 1.64832L15.348 1.64882C15.0967 1.64881 14.8504 1.57916 14.6363 1.44761L12.8779 0.366842C12.4413 0.0984223 11.8908 0.0984223 11.4541 0.366842L9.69565 1.44759C9.48159 1.57916 9.23525 1.64881 8.984 1.64881L8.94638 1.64832L6.88318 1.59157L6.84558 1.59107C6.34655 1.59113 5.88766 1.86461 5.65014 2.30349L4.66762 4.11864C4.54199 4.35091 4.35138 4.54152 4.11911 4.66715L2.30395 5.64967C1.85319 5.89362 1.57794 6.37036 1.59204 6.88271L1.64879 8.94591C1.65608 9.20988 1.58633 9.47025 1.44806 9.69523L0.3673 11.4536C0.0989209 11.8903 0.0989209 12.4408 0.3673 12.8775L1.44806 14.6359C1.58633 14.8609 1.65608 15.1213 1.64879 15.3852L1.59204 17.4484C1.57794 17.9608 1.85319 18.4375 2.30395 18.6815L4.07753 19.6415L4.07704 19.6433H4.08093L4.11911 19.6639C4.35138 19.7896 4.54199 19.9802 4.66762 20.2125L5.65014 22.0276C5.88766 22.4665 6.34655 22.74 6.84558 22.74L6.88318 22.7395L8.94638 22.6828L8.98405 22.6823C9.2353 22.6823 9.48164 22.7519 9.6957 22.8835L11.4541 23.9642C11.8908 24.2327 12.4413 24.2327 12.8779 23.9642L14.6363 22.8835C14.8504 22.7519 15.0967 22.6823 15.348 22.6823L15.3857 22.6828L17.4489 22.7395L17.4864 22.74C17.9855 22.74 18.4444 22.4665 18.6819 22.0276L19.6644 20.2124C19.79 19.9802 19.9807 19.7896 20.2129 19.6639L20.2511 19.6433H20.255L20.2545 19.6414L22.0281 18.6814C22.4788 18.4375 22.7541 17.9607 22.74 17.4484L22.6832 15.3852C22.6759 15.1212 22.7457 14.8608 22.884 14.6359L23.9647 12.8775C24.2331 12.4408 24.2331 11.8903 23.9647 11.4536ZM18.4687 19.5653L17.4863 21.3804L15.4239 21.3237L15.3672 21.3227H15.348C14.8454 21.3226 14.3526 21.4619 13.9244 21.7252L12.166 22.806L10.4075 21.7251C9.97938 21.4619 9.48662 21.3226 8.98404 21.3227L8.92768 21.3232L8.90893 21.3237L6.84581 21.3804L5.86347 19.5657C5.78824 19.446 5.70368 19.3325 5.61059 19.2262C6.04169 18.2424 7.01314 17.6061 8.08725 17.6039H16.2448C17.3188 17.6061 18.2903 18.2424 18.7214 19.2261C18.6284 19.3324 18.5439 19.4458 18.4687 19.5653ZM21.3241 15.4226C21.3092 14.8947 21.4487 14.3738 21.7256 13.924L22.8065 12.1655L21.7257 10.4071C21.4488 9.95728 21.3092 9.43631 21.3242 8.90823L21.3809 6.84528L19.5657 5.86285C19.1009 5.61179 18.7195 5.23033 18.4686 4.76541L17.4862 2.95066L15.4231 3.00742L15.4043 3.00791L15.348 3.00841C14.8454 3.00849 14.3527 2.86918 13.9245 2.60597L12.166 1.5251L10.4076 2.60589C9.97946 2.86915 9.48667 3.0085 8.98405 3.00844H8.96488L8.90812 3.00736L6.84575 2.95067L5.86332 4.76583C5.61226 5.2307 5.23081 5.61206 4.76588 5.86301L2.95113 6.84536L3.00784 8.90848C3.02281 9.43643 2.8833 9.95727 2.60644 10.4071L1.52557 12.1655L2.60628 13.9239C2.88325 14.3738 3.02281 14.8948 3.00784 15.4229L2.95113 17.4858L4.53626 18.3437C5.24898 17.0491 6.60948 16.2448 8.08725 16.2443H16.2448C17.7226 16.2448 19.0832 17.0491 19.7959 18.3438L21.3809 17.4857L21.3241 15.4226ZM12.1661 5.36761C9.53802 5.36761 7.40754 7.49809 7.40754 10.1262C7.40754 12.7542 9.53802 14.8847 12.1661 14.8847C14.7942 14.8847 16.9247 12.7542 16.9247 10.1262C16.9247 7.49809 14.7942 5.36761 12.1661 5.36761ZM8.76713 10.1262C8.76713 12.0034 10.2889 13.5251 12.1661 13.5251C14.0424 13.523 15.563 12.0025 15.5651 10.1262C15.5651 8.24897 14.0433 6.7272 12.1661 6.7272C10.2889 6.7272 8.76713 8.24897 8.76713 10.1262Z" fill="#FFE256"/>
</svg>
