<svg width="28" height="22" viewBox="0 0 28 22" fill="none" xmlns="http://www.w3.org/2000/svg">
<path fill-rule="evenodd" clip-rule="evenodd" d="M2.69565 1H25.3043C26.237 1 27 1.88525 27 2.96721V19.0328C27 20.1148 26.237 21 25.3043 21H2.69565C1.76304 21 1 20.1148 1 19.0328V2.96721C1 1.88525 1.76304 1 2.69565 1ZM26.1522 2.96721C26.1522 2.42623 25.7707 1.98361 25.3043 1.98361H2.69565C2.22935 1.98361 1.84783 2.42623 1.84783 2.96721V19.0328C1.84783 19.5738 2.22935 20.0164 2.69565 20.0164H25.3043C25.7707 20.0164 26.1522 19.5738 26.1522 19.0328V2.96721Z" fill="#EFB232"/>
<path d="M25.3043 0.9H2.69565V1.1H25.3043V0.9ZM27.1 2.96721C27.1 1.84448 26.3056 0.9 25.3043 0.9V1.1C26.1683 1.1 26.9 1.92602 26.9 2.96721H27.1ZM27.1 19.0328V2.96721H26.9V19.0328H27.1ZM25.3043 21.1C26.3056 21.1 27.1 20.1555 27.1 19.0328H26.9C26.9 20.074 26.1683 20.9 25.3043 20.9V21.1ZM2.69565 21.1H25.3043V20.9H2.69565V21.1ZM0.9 19.0328C0.9 20.1555 1.69439 21.1 2.69565 21.1V20.9C1.8317 20.9 1.1 20.074 1.1 19.0328H0.9ZM0.9 2.96721V19.0328H1.1V2.96721H0.9ZM2.69565 0.9C1.69439 0.9 0.9 1.84448 0.9 2.96721H1.1C1.1 1.92602 1.8317 1.1 2.69565 1.1V0.9ZM25.3043 2.08361C25.702 2.08361 26.0522 2.467 26.0522 2.96721H26.2522C26.2522 2.38546 25.8393 1.88361 25.3043 1.88361V2.08361ZM2.69565 2.08361H25.3043V1.88361H2.69565V2.08361ZM1.94783 2.96721C1.94783 2.467 2.298 2.08361 2.69565 2.08361V1.88361C2.16069 1.88361 1.74783 2.38546 1.74783 2.96721H1.94783ZM1.94783 19.0328V2.96721H1.74783V19.0328H1.94783ZM2.69565 19.9164C2.298 19.9164 1.94783 19.533 1.94783 19.0328H1.74783C1.74783 19.6145 2.16069 20.1164 2.69565 20.1164V19.9164ZM25.3043 19.9164H2.69565V20.1164H25.3043V19.9164ZM26.0522 19.0328C26.0522 19.533 25.702 19.9164 25.3043 19.9164V20.1164C25.8393 20.1164 26.2522 19.6145 26.2522 19.0328H26.0522ZM26.0522 2.96721V19.0328H26.2522V2.96721H26.0522Z" fill="#EFB232"/>
<path d="M10 16.082H18" stroke="#EFB232" stroke-width="1.1"/>
<path fill-rule="evenodd" clip-rule="evenodd" d="M14.2801 7.16624L14.9796 8.64958C15.0284 8.73483 15.1098 8.80303 15.1911 8.82008L16.7527 9.05877C16.9967 9.09287 17.078 9.39977 16.9154 9.57027L15.7767 10.7297C15.7116 10.7979 15.6791 10.9002 15.6954 11.0025L15.9556 12.6393C15.9882 12.8779 15.7442 13.0655 15.5327 12.9632L14.1337 12.196C14.0524 12.1448 13.9548 12.1448 13.8735 12.196L12.4745 12.9632C12.2631 13.0825 12.0191 12.895 12.0516 12.6393L12.3119 11.0025C12.3281 10.9002 12.2956 10.7979 12.2305 10.7297L11.0918 9.57027C10.9129 9.39977 11.0105 9.09287 11.2545 9.05877L12.8161 8.82008C12.9137 8.80303 12.9951 8.75188 13.0276 8.64958L13.7271 7.16624C13.8735 6.94459 14.1663 6.94459 14.2801 7.16624Z" stroke="#EFB232" stroke-width="1.1"/>
</svg>
