<svg width="26" height="17" viewBox="0 0 26 17" fill="none" xmlns="http://www.w3.org/2000/svg">
<path fill-rule="evenodd" clip-rule="evenodd" d="M23.7165 4.17381C23.8662 3.89997 24.0913 3.67482 24.365 3.52508L25.5 2.90455L24.365 2.28261C24.091 2.13328 23.8658 1.90803 23.7165 1.63388L23.0962 0.5L22.4758 1.63388C22.3265 1.90803 22.1013 2.13327 21.8273 2.28261L20.6923 2.90455L21.8273 3.52508C22.101 3.67482 22.3261 3.89997 22.4758 4.17381L23.0962 5.30769L23.7165 4.17381ZM7.89157 12.1228L10.0678 5.50322C10.0989 5.40891 10.115 5.30949 10.1154 5.20926C10.1144 4.78482 9.83097 4.42381 9.44619 4.35701C9.0614 4.29021 8.68896 4.53735 8.56695 4.94045L6.80203 10.7505L4.97507 4.93102C4.8646 4.58137 4.56268 4.34654 4.22322 4.34624H4.17849C3.92018 4.34653 3.67811 4.48357 3.52944 4.71368C3.38077 4.94378 3.34404 5.23824 3.43096 5.50322L5.60282 12.1213C5.77547 12.6479 6.23329 12.9996 6.74669 13C7.26009 13.0004 7.71832 12.6493 7.89157 12.1228ZM3.5242 15.6738C3.6739 15.4 3.89898 15.1748 4.17274 15.0251L5.30769 14.4045L4.17274 13.784C3.8989 13.6337 3.67384 13.4081 3.5242 13.1339L2.90385 12L2.2835 13.1339C2.13346 13.4078 1.9085 13.6333 1.63495 13.784L0.5 14.4046L1.63495 15.0251C1.90842 15.1752 2.1334 15.4003 2.2835 15.6738L2.90385 16.8077L3.5242 15.6738ZM13.9615 12.126C13.9615 12.4382 13.7783 12.7268 13.4808 12.8829C13.1833 13.039 12.8167 13.039 12.5192 12.8829C12.2217 12.7268 12.0385 12.4382 12.0385 12.126V5.22018C12.0385 4.90792 12.2217 4.61938 12.5192 4.46325C12.8167 4.30712 13.1833 4.30712 13.4808 4.46325C13.7783 4.61938 13.9615 4.90792 13.9615 5.22018V12.126ZM21.574 9.20559C21.8882 8.98422 22.1438 8.69174 22.3191 8.35279C22.5275 7.9374 22.6283 7.47773 22.6127 7.0147C22.64 6.41314 22.4607 5.82006 22.1037 5.33109C21.793 4.91522 21.3471 4.61651 20.8401 4.48457C20.1434 4.37021 19.4367 4.32653 18.7309 4.35421H15.8846V12.1268C15.8846 12.609 16.2818 13 16.7717 13C17.2616 13 17.6588 12.609 17.6588 12.1268V9.73957H18.8155C19.4307 9.75296 20.0459 9.71143 20.6535 9.61549C20.9847 9.53969 21.2975 9.4004 21.574 9.20559ZM19.7749 6.31831C19.3845 6.27824 18.991 6.26267 18.5978 6.27173H17.8077V8.18659H18.7023C19.1373 8.20729 19.5736 8.17172 19.9956 8.08115C20.2027 8.0173 20.381 7.9017 20.5062 7.75017C20.6312 7.59528 20.6959 7.41209 20.6916 7.22548C20.7015 7.0027 20.6088 6.78519 20.4326 6.61743C20.2602 6.45878 20.0284 6.35336 19.7749 6.31831Z" fill="#111111"/>
</svg>
